<mxfile host="app.diagrams.net" modified="2021-10-25T01:22:24.092Z" agent="5.0 (Macintosh; Intel Mac OS X 10_15_7) AppleWebKit/537.36 (KHTML, like Gecko) Chrome/95.0.4638.54 Safari/537.36" etag="DClg8VOhPKlpyAAusxrE" version="15.5.8" type="github">
  <diagram id="WT4HEYpyVY9mIii9Xwt7" name="Page-1">
    <mxGraphModel dx="1089" dy="593" grid="1" gridSize="10" guides="1" tooltips="1" connect="1" arrows="1" fold="1" page="1" pageScale="1" pageWidth="850" pageHeight="1100" math="0" shadow="0">
      <root>
        <mxCell id="0" />
        <mxCell id="1" parent="0" />
        <mxCell id="3TVodvRHV9xZJvBUxKwB-1" value="Lessor" style="shape=umlActor;verticalLabelPosition=bottom;verticalAlign=top;html=1;outlineConnect=0;" vertex="1" parent="1">
          <mxGeometry x="90" y="200" width="30" height="60" as="geometry" />
        </mxCell>
        <mxCell id="3TVodvRHV9xZJvBUxKwB-2" value="Leasee" style="shape=umlActor;verticalLabelPosition=bottom;verticalAlign=top;html=1;outlineConnect=0;" vertex="1" parent="1">
          <mxGeometry x="730" y="200" width="30" height="60" as="geometry" />
        </mxCell>
        <mxCell id="3TVodvRHV9xZJvBUxKwB-5" value="Pool" style="rounded=1;whiteSpace=wrap;html=1;" vertex="1" parent="1">
          <mxGeometry x="360" y="440" width="120" height="60" as="geometry" />
        </mxCell>
        <mxCell id="3TVodvRHV9xZJvBUxKwB-6" value="" style="endArrow=classic;html=1;rounded=0;entryX=1;entryY=0.5;entryDx=0;entryDy=0;" edge="1" parent="1" source="3TVodvRHV9xZJvBUxKwB-2" target="3TVodvRHV9xZJvBUxKwB-5">
          <mxGeometry width="50" height="50" relative="1" as="geometry">
            <mxPoint x="750" y="280" as="sourcePoint" />
            <mxPoint x="550" y="300" as="targetPoint" />
            <Array as="points">
              <mxPoint x="745" y="270" />
              <mxPoint x="740" y="280" />
              <mxPoint x="740" y="470" />
            </Array>
          </mxGeometry>
        </mxCell>
        <mxCell id="3TVodvRHV9xZJvBUxKwB-7" value="1 BTC as collateral&amp;nbsp;" style="text;html=1;strokeColor=none;fillColor=none;align=center;verticalAlign=middle;whiteSpace=wrap;rounded=0;" vertex="1" parent="1">
          <mxGeometry x="580" y="430" width="60" height="30" as="geometry" />
        </mxCell>
        <mxCell id="3TVodvRHV9xZJvBUxKwB-8" value="" style="endArrow=classic;html=1;rounded=0;" edge="1" parent="1" source="3TVodvRHV9xZJvBUxKwB-1" target="3TVodvRHV9xZJvBUxKwB-2">
          <mxGeometry width="50" height="50" relative="1" as="geometry">
            <mxPoint x="500" y="350" as="sourcePoint" />
            <mxPoint x="550" y="300" as="targetPoint" />
          </mxGeometry>
        </mxCell>
        <mxCell id="3TVodvRHV9xZJvBUxKwB-9" value="15 ETH (1 BTC~15ETH)" style="text;html=1;strokeColor=none;fillColor=none;align=center;verticalAlign=middle;whiteSpace=wrap;rounded=0;" vertex="1" parent="1">
          <mxGeometry x="370" y="200" width="150" height="30" as="geometry" />
        </mxCell>
        <mxCell id="3TVodvRHV9xZJvBUxKwB-10" value="" style="endArrow=classic;html=1;rounded=0;exitX=0;exitY=1;exitDx=0;exitDy=0;exitPerimeter=0;entryX=1;entryY=1;entryDx=0;entryDy=0;entryPerimeter=0;" edge="1" parent="1" source="3TVodvRHV9xZJvBUxKwB-2" target="3TVodvRHV9xZJvBUxKwB-1">
          <mxGeometry width="50" height="50" relative="1" as="geometry">
            <mxPoint x="500" y="340" as="sourcePoint" />
            <mxPoint x="550" y="290" as="targetPoint" />
          </mxGeometry>
        </mxCell>
        <mxCell id="3TVodvRHV9xZJvBUxKwB-14" style="edgeStyle=orthogonalEdgeStyle;rounded=0;orthogonalLoop=1;jettySize=auto;html=1;" edge="1" parent="1" source="3TVodvRHV9xZJvBUxKwB-11" target="3TVodvRHV9xZJvBUxKwB-12">
          <mxGeometry relative="1" as="geometry" />
        </mxCell>
        <mxCell id="3TVodvRHV9xZJvBUxKwB-11" value="Pays =&amp;gt; ( Lease/Rent )&lt;br&gt;&lt;br&gt;Example: Pays =&amp;gt; ( 0.1 ETH) Monthly for 15 months or as per the contract" style="text;html=1;strokeColor=none;fillColor=none;align=center;verticalAlign=middle;whiteSpace=wrap;rounded=0;" vertex="1" parent="1">
          <mxGeometry x="330" y="260" width="200" height="110" as="geometry" />
        </mxCell>
        <mxCell id="3TVodvRHV9xZJvBUxKwB-13" style="edgeStyle=orthogonalEdgeStyle;rounded=0;orthogonalLoop=1;jettySize=auto;html=1;" edge="1" parent="1" source="3TVodvRHV9xZJvBUxKwB-12" target="3TVodvRHV9xZJvBUxKwB-1">
          <mxGeometry relative="1" as="geometry" />
        </mxCell>
        <mxCell id="3TVodvRHV9xZJvBUxKwB-12" value="Get total&amp;nbsp; 15&amp;nbsp; ETH + 1.5 ETH = 16 ETH in 15 months" style="text;html=1;strokeColor=none;fillColor=none;align=center;verticalAlign=middle;whiteSpace=wrap;rounded=0;" vertex="1" parent="1">
          <mxGeometry x="47.5" y="370" width="115" height="130" as="geometry" />
        </mxCell>
        <mxCell id="3TVodvRHV9xZJvBUxKwB-16" value="" style="endArrow=classic;html=1;rounded=0;" edge="1" parent="1">
          <mxGeometry width="50" height="50" relative="1" as="geometry">
            <mxPoint x="420" y="500" as="sourcePoint" />
            <mxPoint x="740" y="260" as="targetPoint" />
            <Array as="points">
              <mxPoint x="420" y="570" />
              <mxPoint x="740" y="570" />
            </Array>
          </mxGeometry>
        </mxCell>
        <mxCell id="3TVodvRHV9xZJvBUxKwB-17" value="Once paid all amount gets back the collateral&amp;nbsp;" style="text;html=1;strokeColor=none;fillColor=none;align=center;verticalAlign=middle;whiteSpace=wrap;rounded=0;" vertex="1" parent="1">
          <mxGeometry x="510" y="535" width="140" height="30" as="geometry" />
        </mxCell>
        <mxCell id="3TVodvRHV9xZJvBUxKwB-18" value="Lessor" style="shape=umlActor;verticalLabelPosition=bottom;verticalAlign=top;html=1;outlineConnect=0;" vertex="1" parent="1">
          <mxGeometry x="122.5" y="960" width="30" height="60" as="geometry" />
        </mxCell>
        <mxCell id="3TVodvRHV9xZJvBUxKwB-19" value="Leasee" style="shape=umlActor;verticalLabelPosition=bottom;verticalAlign=top;html=1;outlineConnect=0;" vertex="1" parent="1">
          <mxGeometry x="762.5" y="960" width="30" height="60" as="geometry" />
        </mxCell>
        <mxCell id="3TVodvRHV9xZJvBUxKwB-20" value="Pool" style="rounded=1;whiteSpace=wrap;html=1;" vertex="1" parent="1">
          <mxGeometry x="392.5" y="1200" width="120" height="60" as="geometry" />
        </mxCell>
        <mxCell id="3TVodvRHV9xZJvBUxKwB-21" value="" style="endArrow=classic;html=1;rounded=0;entryX=1;entryY=0.5;entryDx=0;entryDy=0;" edge="1" parent="1" source="3TVodvRHV9xZJvBUxKwB-19" target="3TVodvRHV9xZJvBUxKwB-20">
          <mxGeometry width="50" height="50" relative="1" as="geometry">
            <mxPoint x="782.5" y="1040" as="sourcePoint" />
            <mxPoint x="582.5" y="1060" as="targetPoint" />
            <Array as="points">
              <mxPoint x="777.5" y="1030" />
              <mxPoint x="772.5" y="1040" />
              <mxPoint x="772.5" y="1230" />
            </Array>
          </mxGeometry>
        </mxCell>
        <mxCell id="3TVodvRHV9xZJvBUxKwB-22" value="1 BTC as collateral&amp;nbsp;" style="text;html=1;strokeColor=none;fillColor=none;align=center;verticalAlign=middle;whiteSpace=wrap;rounded=0;" vertex="1" parent="1">
          <mxGeometry x="612.5" y="1190" width="60" height="30" as="geometry" />
        </mxCell>
        <mxCell id="3TVodvRHV9xZJvBUxKwB-23" value="" style="endArrow=classic;html=1;rounded=0;" edge="1" parent="1" source="3TVodvRHV9xZJvBUxKwB-18" target="3TVodvRHV9xZJvBUxKwB-19">
          <mxGeometry width="50" height="50" relative="1" as="geometry">
            <mxPoint x="532.5" y="1110" as="sourcePoint" />
            <mxPoint x="582.5" y="1060" as="targetPoint" />
          </mxGeometry>
        </mxCell>
        <mxCell id="3TVodvRHV9xZJvBUxKwB-24" value="15 ETH (1 BTC~15ETH)" style="text;html=1;strokeColor=none;fillColor=none;align=center;verticalAlign=middle;whiteSpace=wrap;rounded=0;" vertex="1" parent="1">
          <mxGeometry x="402.5" y="960" width="150" height="30" as="geometry" />
        </mxCell>
        <mxCell id="3TVodvRHV9xZJvBUxKwB-25" value="" style="endArrow=classic;html=1;rounded=0;exitX=0;exitY=1;exitDx=0;exitDy=0;exitPerimeter=0;entryX=1;entryY=1;entryDx=0;entryDy=0;entryPerimeter=0;" edge="1" parent="1" source="3TVodvRHV9xZJvBUxKwB-19" target="3TVodvRHV9xZJvBUxKwB-18">
          <mxGeometry width="50" height="50" relative="1" as="geometry">
            <mxPoint x="532.5" y="1100" as="sourcePoint" />
            <mxPoint x="582.5" y="1050" as="targetPoint" />
          </mxGeometry>
        </mxCell>
        <mxCell id="3TVodvRHV9xZJvBUxKwB-26" style="edgeStyle=orthogonalEdgeStyle;rounded=0;orthogonalLoop=1;jettySize=auto;html=1;" edge="1" parent="1" source="3TVodvRHV9xZJvBUxKwB-27" target="3TVodvRHV9xZJvBUxKwB-29">
          <mxGeometry relative="1" as="geometry" />
        </mxCell>
        <mxCell id="3TVodvRHV9xZJvBUxKwB-27" value="Pays =&amp;gt; ( Lease/Rent +&amp;nbsp; Principle to buy 15ETH&lt;br&gt;&lt;br&gt;Example: Pays =&amp;gt; ( 0.1 ETH + 1 ETH&amp;nbsp; ) Monthly for 15 months&lt;br&gt;" style="text;html=1;strokeColor=none;fillColor=none;align=center;verticalAlign=middle;whiteSpace=wrap;rounded=0;" vertex="1" parent="1">
          <mxGeometry x="362.5" y="1020" width="200" height="110" as="geometry" />
        </mxCell>
        <mxCell id="3TVodvRHV9xZJvBUxKwB-28" style="edgeStyle=orthogonalEdgeStyle;rounded=0;orthogonalLoop=1;jettySize=auto;html=1;" edge="1" parent="1" source="3TVodvRHV9xZJvBUxKwB-29" target="3TVodvRHV9xZJvBUxKwB-18">
          <mxGeometry relative="1" as="geometry" />
        </mxCell>
        <mxCell id="3TVodvRHV9xZJvBUxKwB-29" value="Get total&amp;nbsp; 15&amp;nbsp; ETH + 1.5 ETH = 16 ETH in 15 months" style="text;html=1;strokeColor=none;fillColor=none;align=center;verticalAlign=middle;whiteSpace=wrap;rounded=0;" vertex="1" parent="1">
          <mxGeometry x="80" y="1130" width="115" height="130" as="geometry" />
        </mxCell>
        <mxCell id="3TVodvRHV9xZJvBUxKwB-30" value="" style="endArrow=classic;html=1;rounded=0;" edge="1" parent="1">
          <mxGeometry width="50" height="50" relative="1" as="geometry">
            <mxPoint x="452.5" y="1260" as="sourcePoint" />
            <mxPoint x="772.5" y="1020" as="targetPoint" />
            <Array as="points">
              <mxPoint x="452.5" y="1330" />
              <mxPoint x="772.5" y="1330" />
            </Array>
          </mxGeometry>
        </mxCell>
        <mxCell id="3TVodvRHV9xZJvBUxKwB-31" value="Once paid all amount gets back the collateral&amp;nbsp;" style="text;html=1;strokeColor=none;fillColor=none;align=center;verticalAlign=middle;whiteSpace=wrap;rounded=0;" vertex="1" parent="1">
          <mxGeometry x="542.5" y="1295" width="140" height="30" as="geometry" />
        </mxCell>
        <mxCell id="3TVodvRHV9xZJvBUxKwB-32" value="" style="endArrow=none;html=1;rounded=0;" edge="1" parent="1">
          <mxGeometry width="50" height="50" relative="1" as="geometry">
            <mxPoint y="680" as="sourcePoint" />
            <mxPoint x="850" y="680" as="targetPoint" />
          </mxGeometry>
        </mxCell>
      </root>
    </mxGraphModel>
  </diagram>
</mxfile>
